<?xml version="1.0" encoding="utf-8"?>
<!-- Generator: Adobe Illustrator 18.0.0, SVG Export Plug-In . SVG Version: 6.00 Build 0)  -->
<!DOCTYPE svg PUBLIC "-//W3C//DTD SVG 1.1//EN" "http://www.w3.org/Graphics/SVG/1.1/DTD/svg11.dtd">
<svg version="1.1" id="Layer_1" xmlns="http://www.w3.org/2000/svg" xmlns:xlink="http://www.w3.org/1999/xlink" x="0px" y="0px"
	 viewBox="21 481 370 135.8" enable-background="new 21 481 370 135.8" xml:space="preserve">
<path fill="none" stroke="#FDC7D7" stroke-width="2" stroke-miterlimit="10" d="M102.3,614.6L56,561.2v53.4H27.4V488.8H56v51.4
	l43.1-51.4h34.8l-50.6,59.6l58.5,66.2H102.3L102.3,614.6z"/>
<path fill="none" stroke="#FDC7D7" stroke-width="2" stroke-miterlimit="10" d="M182.3,599.5c0,9.6-7.7,17.3-17.5,17.3
	c-9.6,0-17.3-7.7-17.3-17.3c0-9.8,7.7-17.5,17.3-17.5C174.4,581.9,182.3,589.8,182.3,599.5z"/>
<path fill="none" stroke="#01FFC3" stroke-width="2" stroke-miterlimit="10" d="M287.1,488.8c23.3,0,41,12.6,41,37.3
	c0,18.9-10.4,31.6-25.8,36.5l43.3,52h-36.5l-38.4-49.7v49.7h-28.6V488.8H287.1z M274.1,544.6c10.9,0,23.7-0.8,23.7-16.4
	c0-15.7-13-16.4-23.7-16.4h-3.4v32.9L274.1,544.6L274.1,544.6z"/>
<path fill="none" stroke="#01FFC3" stroke-width="2" stroke-miterlimit="10" d="M386.1,599.5c0,9.6-7.7,17.3-17.5,17.3
	c-9.6,0-17.3-7.7-17.3-17.3c0-9.8,7.7-17.5,17.3-17.5C378.4,581.9,386.1,589.8,386.1,599.5z"/>
</svg>
